<svg width="132" height="133" viewBox="0 0 132 133" fill="none" xmlns="http://www.w3.org/2000/svg">
<path d="M43.1453 13.5695V23.0851H22.5047L18.3282 24.9413V65.996L26.9133 57.875H78.5375L82.25 54.6266V46.288H101.395L110.676 54.6411V13.5695L107.891 9.625H48.25L43.1453 13.5695Z" fill="#FFAB97"/>
<path d="M39.1893 94.8552C45.9838 94.8552 51.4917 89.3472 51.4917 82.5527C51.4917 75.7582 45.9838 70.2502 39.1893 70.2502C32.3948 70.2502 26.8868 75.7582 26.8868 82.5527C26.8868 89.3472 32.3948 94.8552 39.1893 94.8552Z" fill="#FFAB97" stroke="#F94F2D" stroke-width="8"/>
<path d="M39.1899 98.0939C30.9883 98.0939 14.6481 102.195 14.6481 110.396V114.497H63.7317V110.396C63.7317 102.195 47.3915 98.0939 39.1899 98.0939Z" fill="#FFAB97" stroke="#F94F2D" stroke-width="8"/>
<path d="M92.8093 94.8552C99.6037 94.8552 105.112 89.3472 105.112 82.5527C105.112 75.7582 99.6037 70.2502 92.8093 70.2502C86.0148 70.2502 80.5068 75.7582 80.5068 82.5527C80.5068 89.3472 86.0148 94.8552 92.8093 94.8552Z" fill="#FFAB97" stroke="#F94F2D" stroke-width="8"/>
<path d="M92.8098 98.0939C84.6081 98.0939 68.2679 102.195 68.2679 110.396V114.497H117.352V110.396C117.352 102.195 101.011 98.0939 92.8098 98.0939Z" fill="#FFAB97" stroke="#F94F2D" stroke-width="8"/>
<path d="M45.875 9.37512C45.875 8.82284 46.3227 8.37512 46.875 8.37512H109.038C109.59 8.37512 110.038 8.82284 110.038 9.37512V45.8149V55.5692L101.872 45.8149H46.875C46.3227 45.8149 45.875 45.3672 45.875 44.8149V9.37512Z" stroke="#F94F2D" stroke-width="8" stroke-linejoin="round"/>
<path d="M59.25 21.2502H19.3283C18.776 21.2502 18.3283 21.698 18.3283 22.2502V59.1252V68.8795L26.4947 59.1252H81.4912C82.0435 59.1252 82.4912 58.6775 82.4912 58.1252V38.5326" stroke="#F94F2D" stroke-width="8" stroke-linecap="round" stroke-linejoin="round"/>
<path d="M64.5021 29.4731L68.4466 35.2738L81.3058 23.6251" stroke="#F94F2D" stroke-width="8" stroke-linecap="round" stroke-linejoin="round"/>
</svg>
