<svg width="21" height="21" viewBox="0 0 21 21" fill="none" xmlns="http://www.w3.org/2000/svg">
<path d="M9.54896 2.60047C9.84833 1.6792 11.1517 1.6792 11.451 2.60047L12.9699 7.27437C13.1038 7.68636 13.4877 7.9653 13.9209 7.96532L18.8354 7.96551C19.8041 7.96554 20.2068 9.20509 19.4232 9.7745L15.4474 12.6633C15.0969 12.918 14.9503 13.3693 15.0841 13.7813L16.6026 18.4553C16.9019 19.3766 15.8475 20.1427 15.0638 19.5733L11.0878 16.6848C10.7373 16.4302 10.2627 16.4302 9.91225 16.6848L5.93622 19.5733C5.15252 20.1427 4.0981 19.3766 4.3974 18.4553L5.91589 13.7813C6.04974 13.3693 5.90309 12.918 5.55263 12.6633L1.57683 9.7745C0.793169 9.20509 1.19592 7.96554 2.16461 7.96551L7.07911 7.96532C7.51231 7.9653 7.89623 7.68637 8.03011 7.27437L9.54896 2.60047Z" stroke="#46BCAA" stroke-width="2"/>
</svg>
