<svg width="132" height="133" viewBox="0 0 132 133" fill="none" xmlns="http://www.w3.org/2000/svg">
<path d="M33.2796 38.7438H60.8421H100.493L107.586 43.5793L110.97 53.4115L107.586 70.9806L108.553 91.2898L106.135 99.8326L97.5921 105.474L35.8586 104.668L27.477 101.606L24.5757 90.0004V72.5925L21.6744 65.178L22.4803 47.4477L33.2796 38.7438Z" fill="#8ECBFF"/>
<path d="M21.5145 54.1544C21.5145 45.6085 28.4423 38.6807 36.9881 38.6807H95.0135C103.559 38.6807 110.487 45.6085 110.487 54.1544V60.5951C110.487 68.2625 104.872 74.7737 97.2881 75.9007L68.2754 80.2122C66.7673 80.4363 65.2344 80.4363 63.7263 80.2122L34.7136 75.9007C27.1295 74.7737 21.5145 68.2625 21.5145 60.5951V54.1544Z" stroke="#2D71F9" stroke-width="8" stroke-linecap="round" stroke-linejoin="round"/>
<path d="M23.717 68.9808V89.5914C23.717 98.1373 30.6448 105.065 39.1907 105.065H92.8087C101.355 105.065 108.282 98.1373 108.282 89.5915V68.9808" stroke="#2D71F9" stroke-width="8" stroke-linecap="round" stroke-linejoin="round"/>
<path d="M51.5388 38.6807V38.6807C51.5388 32.7476 56.3486 27.9378 62.2817 27.9378H69.719C75.6521 27.9378 80.4619 32.7476 80.4619 38.6807V38.6807" stroke="#2D71F9" stroke-width="8" stroke-linecap="round" stroke-linejoin="round"/>
<path d="M59.1144 67.8524H72.8873" stroke="#2D71F9" stroke-width="8" stroke-linecap="round" stroke-linejoin="round"/>
</svg>
