<svg width="203" height="77" viewBox="0 0 203 77" fill="none" xmlns="http://www.w3.org/2000/svg">
<path d="M38.582 29.7699L75.0508 0.000109838L82.4005 25.5673L38.582 29.7699Z" fill="#F1AE42"/>
<path d="M17.5807 57.5904C16.0207 57.5904 14.5927 57.2304 13.2967 56.5104C12.0247 55.7904 11.0047 54.7104 10.2367 53.2704C9.49266 51.8064 9.12066 49.9584 9.12066 47.7264C9.12066 45.4704 9.48066 43.6224 10.2007 42.1824C10.9447 40.7424 11.9527 39.6744 13.2247 38.9784C14.4967 38.2584 15.9487 37.8984 17.5807 37.8984C19.4767 37.8984 21.1447 38.3064 22.5847 39.1224C24.0487 39.9384 25.2007 41.0784 26.0407 42.5424C26.9047 44.0064 27.3367 45.7344 27.3367 47.7264C27.3367 49.7184 26.9047 51.4584 26.0407 52.9464C25.2007 54.4104 24.0487 55.5504 22.5847 56.3664C21.1447 57.1824 19.4767 57.5904 17.5807 57.5904ZM6.92466 64.3224V38.1144H11.2087V42.6504L11.0647 47.7624L11.4247 52.8744V64.3224H6.92466ZM17.0767 53.7384C18.1567 53.7384 19.1167 53.4984 19.9567 53.0184C20.8207 52.5384 21.5047 51.8424 22.0087 50.9304C22.5127 50.0184 22.7647 48.9504 22.7647 47.7264C22.7647 46.4784 22.5127 45.4104 22.0087 44.5224C21.5047 43.6104 20.8207 42.9144 19.9567 42.4344C19.1167 41.9544 18.1567 41.7144 17.0767 41.7144C15.9967 41.7144 15.0247 41.9544 14.1607 42.4344C13.2967 42.9144 12.6127 43.6104 12.1087 44.5224C11.6047 45.4104 11.3527 46.4784 11.3527 47.7264C11.3527 48.9504 11.6047 50.0184 12.1087 50.9304C12.6127 51.8424 13.2967 52.5384 14.1607 53.0184C15.0247 53.4984 15.9967 53.7384 17.0767 53.7384ZM31.6043 57.3384V38.1144H36.1043V57.3384H31.6043ZM33.8723 34.9464C33.0323 34.9464 32.3363 34.6824 31.7843 34.1544C31.2563 33.6264 30.9923 32.9904 30.9923 32.2464C30.9923 31.4784 31.2563 30.8424 31.7843 30.3384C32.3363 29.8104 33.0323 29.5464 33.8723 29.5464C34.7123 29.5464 35.3963 29.7984 35.9243 30.3024C36.4763 30.7824 36.7523 31.3944 36.7523 32.1384C36.7523 32.9304 36.4883 33.6024 35.9603 34.1544C35.4323 34.6824 34.7363 34.9464 33.8723 34.9464ZM49.2466 57.5904C47.1346 57.5904 45.5026 57.0504 44.3506 55.9704C43.1986 54.8664 42.6226 53.2464 42.6226 51.1104V33.8664H47.1226V51.0024C47.1226 51.9144 47.3506 52.6224 47.8066 53.1264C48.2866 53.6304 48.9466 53.8824 49.7866 53.8824C50.7946 53.8824 51.6346 53.6184 52.3066 53.0904L53.5666 56.2944C53.0386 56.7264 52.3906 57.0504 51.6226 57.2664C50.8546 57.4824 50.0626 57.5904 49.2466 57.5904ZM39.4546 41.8584V38.2584H52.2706V41.8584H39.4546ZM65.4556 57.5904C63.4396 57.5904 61.6396 57.1704 60.0556 56.3304C58.4956 55.4664 57.2716 54.2904 56.3836 52.8024C55.4956 51.3144 55.0516 49.6224 55.0516 47.7264C55.0516 45.8064 55.4956 44.1144 56.3836 42.6504C57.2716 41.1624 58.4956 39.9984 60.0556 39.1584C61.6396 38.3184 63.4396 37.8984 65.4556 37.8984C67.3276 37.8984 68.9716 38.2824 70.3876 39.0504C71.8276 39.7944 72.9196 40.8984 73.6636 42.3624L70.2076 44.3784C69.6316 43.4664 68.9236 42.7944 68.0836 42.3624C67.2676 41.9304 66.3796 41.7144 65.4196 41.7144C64.3156 41.7144 63.3196 41.9544 62.4316 42.4344C61.5436 42.9144 60.8476 43.6104 60.3436 44.5224C59.8396 45.4104 59.5876 46.4784 59.5876 47.7264C59.5876 48.9744 59.8396 50.0544 60.3436 50.9664C60.8476 51.8544 61.5436 52.5384 62.4316 53.0184C63.3196 53.4984 64.3156 53.7384 65.4196 53.7384C66.3796 53.7384 67.2676 53.5224 68.0836 53.0904C68.9236 52.6584 69.6316 51.9864 70.2076 51.0744L73.6636 53.0904C72.9196 54.5304 71.8276 55.6464 70.3876 56.4384C68.9716 57.2064 67.3276 57.5904 65.4556 57.5904ZM88.2858 37.8984C89.8218 37.8984 91.1898 38.1984 92.3898 38.7984C93.6138 39.3984 94.5738 40.3224 95.2698 41.5704C95.9658 42.7944 96.3138 44.3784 96.3138 46.3224V57.3384H91.8138V46.8984C91.8138 45.1944 91.4058 43.9224 90.5898 43.0824C89.7978 42.2424 88.6818 41.8224 87.2418 41.8224C86.1858 41.8224 85.2498 42.0384 84.4338 42.4704C83.6178 42.9024 82.9818 43.5504 82.5258 44.4144C82.0938 45.2544 81.8778 46.3224 81.8778 47.6184V57.3384H77.3778V30.6264H81.8778V43.2984L80.9058 41.7144C81.5778 40.4904 82.5498 39.5544 83.8218 38.9064C85.1178 38.2344 86.6058 37.8984 88.2858 37.8984ZM102.022 57.3384V30.6264H106.522V57.3384H102.022ZM121.465 57.5904C119.329 57.5904 117.457 57.1704 115.849 56.3304C114.265 55.4664 113.029 54.2904 112.141 52.8024C111.277 51.3144 110.845 49.6224 110.845 47.7264C110.845 45.8064 111.265 44.1144 112.105 42.6504C112.969 41.1624 114.145 39.9984 115.633 39.1584C117.145 38.3184 118.861 37.8984 120.781 37.8984C122.653 37.8984 124.321 38.3064 125.785 39.1224C127.249 39.9384 128.401 41.0904 129.241 42.5784C130.081 44.0664 130.501 45.8184 130.501 47.8344C130.501 48.0264 130.489 48.2424 130.465 48.4824C130.465 48.7224 130.453 48.9504 130.429 49.1664H114.409V46.1784H128.053L126.289 47.1144C126.313 46.0104 126.085 45.0384 125.605 44.1984C125.125 43.3584 124.465 42.6984 123.625 42.2184C122.809 41.7384 121.861 41.4984 120.781 41.4984C119.677 41.4984 118.705 41.7384 117.865 42.2184C117.049 42.6984 116.401 43.3704 115.921 44.2344C115.465 45.0744 115.237 46.0704 115.237 47.2224V47.9424C115.237 49.0944 115.501 50.1144 116.029 51.0024C116.557 51.8904 117.301 52.5744 118.261 53.0544C119.221 53.5344 120.325 53.7744 121.573 53.7744C122.653 53.7744 123.625 53.6064 124.489 53.2704C125.353 52.9344 126.121 52.4064 126.793 51.6864L129.205 54.4584C128.341 55.4664 127.249 56.2464 125.929 56.7984C124.633 57.3264 123.145 57.5904 121.465 57.5904ZM146.14 57.3384V53.4504L145.888 52.6224V45.8184C145.888 44.4984 145.492 43.4784 144.7 42.7584C143.908 42.0144 142.708 41.6424 141.1 41.6424C140.02 41.6424 138.952 41.8104 137.896 42.1464C136.864 42.4824 135.988 42.9504 135.268 43.5504L133.504 40.2744C134.536 39.4824 135.76 38.8944 137.176 38.5104C138.616 38.1024 140.104 37.8984 141.64 37.8984C144.424 37.8984 146.572 38.5704 148.084 39.9144C149.62 41.2344 150.388 43.2864 150.388 46.0704V57.3384H146.14ZM140.092 57.5904C138.652 57.5904 137.392 57.3504 136.312 56.8704C135.232 56.3664 134.392 55.6824 133.792 54.8184C133.216 53.9304 132.928 52.9344 132.928 51.8304C132.928 50.7504 133.18 49.7784 133.684 48.9144C134.212 48.0504 135.064 47.3664 136.24 46.8624C137.416 46.3584 138.976 46.1064 140.92 46.1064H146.5V49.0944H141.244C139.708 49.0944 138.676 49.3464 138.148 49.8504C137.62 50.3304 137.356 50.9304 137.356 51.6504C137.356 52.4664 137.68 53.1144 138.328 53.5944C138.976 54.0744 139.876 54.3144 141.028 54.3144C142.132 54.3144 143.116 54.0624 143.98 53.5584C144.868 53.0544 145.504 52.3104 145.888 51.3264L146.644 54.0264C146.212 55.1544 145.432 56.0304 144.304 56.6544C143.2 57.2784 141.796 57.5904 140.092 57.5904ZM159.835 53.0544L159.943 47.4024L169.987 38.1144H175.387L166.855 46.6824L164.479 48.6624L159.835 53.0544ZM156.163 57.3384V30.6264H160.663V57.3384H156.163ZM170.671 57.3384L163.651 48.6624L166.495 45.0624L176.143 57.3384H170.671ZM184.392 57.5904C182.784 57.5904 181.236 57.3864 179.748 56.9784C178.284 56.5464 177.12 56.0304 176.256 55.4304L177.984 52.0104C178.848 52.5624 179.88 53.0184 181.08 53.3784C182.28 53.7384 183.48 53.9184 184.68 53.9184C186.096 53.9184 187.116 53.7264 187.74 53.3424C188.388 52.9584 188.712 52.4424 188.712 51.7944C188.712 51.2664 188.496 50.8704 188.064 50.6064C187.632 50.3184 187.068 50.1024 186.372 49.9584C185.676 49.8144 184.896 49.6824 184.032 49.5624C183.192 49.4424 182.34 49.2864 181.476 49.0944C180.636 48.8784 179.868 48.5784 179.172 48.1944C178.476 47.7864 177.912 47.2464 177.48 46.5744C177.048 45.9024 176.832 45.0144 176.832 43.9104C176.832 42.6864 177.18 41.6304 177.876 40.7424C178.572 39.8304 179.544 39.1344 180.792 38.6544C182.064 38.1504 183.564 37.8984 185.292 37.8984C186.588 37.8984 187.896 38.0424 189.216 38.3304C190.536 38.6184 191.628 39.0264 192.492 39.5544L190.764 42.9744C189.852 42.4224 188.928 42.0504 187.992 41.8584C187.08 41.6424 186.168 41.5344 185.256 41.5344C183.888 41.5344 182.868 41.7384 182.196 42.1464C181.548 42.5544 181.224 43.0704 181.224 43.6944C181.224 44.2704 181.44 44.7024 181.872 44.9904C182.304 45.2784 182.868 45.5064 183.564 45.6744C184.26 45.8424 185.028 45.9864 185.868 46.1064C186.732 46.2024 187.584 46.3584 188.424 46.5744C189.264 46.7904 190.032 47.0904 190.728 47.4744C191.448 47.8344 192.024 48.3504 192.456 49.0224C192.888 49.6944 193.104 50.5704 193.104 51.6504C193.104 52.8504 192.744 53.8944 192.024 54.7824C191.328 55.6704 190.332 56.3664 189.036 56.8704C187.74 57.3504 186.192 57.5904 184.392 57.5904Z" fill="black"/>
<path d="M198.51 30.97C199.17 30.97 199.767 31.1233 200.3 31.43C200.84 31.7367 201.264 32.16 201.57 32.7C201.877 33.2333 202.03 33.8267 202.03 34.48C202.03 35.1333 201.874 35.7333 201.56 36.28C201.247 36.82 200.82 37.2467 200.28 37.56C199.74 37.8733 199.144 38.03 198.49 38.03C197.837 38.03 197.24 37.8733 196.7 37.56C196.167 37.2467 195.744 36.82 195.43 36.28C195.124 35.74 194.97 35.1467 194.97 34.5C194.97 33.8533 195.124 33.26 195.43 32.72C195.744 32.18 196.17 31.7533 196.71 31.44C197.25 31.1267 197.85 30.97 198.51 30.97ZM198.49 37.48C199.044 37.48 199.544 37.3467 199.99 37.08C200.444 36.8133 200.8 36.4533 201.06 36C201.32 35.54 201.45 35.0333 201.45 34.48C201.45 33.9267 201.324 33.4267 201.07 32.98C200.817 32.5267 200.467 32.17 200.02 31.91C199.574 31.65 199.07 31.52 198.51 31.52C197.95 31.52 197.444 31.6533 196.99 31.92C196.537 32.18 196.18 32.5367 195.92 32.99C195.667 33.4433 195.54 33.9467 195.54 34.5C195.54 35.0533 195.667 35.5567 195.92 36.01C196.18 36.4633 196.534 36.8233 196.98 37.09C197.434 37.35 197.937 37.48 198.49 37.48ZM200.32 33.9C200.32 34.1933 200.25 34.4433 200.11 34.65C199.977 34.8567 199.784 35.0133 199.53 35.12L200.41 36.47H199.55L198.77 35.27H198.66H197.88V36.47H197.02V32.53H198.66C199.174 32.53 199.577 32.6533 199.87 32.9C200.17 33.1467 200.32 33.48 200.32 33.9ZM198.61 34.6C198.89 34.6 199.107 34.54 199.26 34.42C199.414 34.2933 199.49 34.12 199.49 33.9C199.49 33.68 199.414 33.51 199.26 33.39C199.107 33.27 198.89 33.21 198.61 33.21H197.87V34.6H198.61Z" fill="black"/>
</svg>
