<svg width="160" height="67" viewBox="0 0 160 67" fill="none" xmlns="http://www.w3.org/2000/svg">
<path d="M32.4434 28.568L60.2292 5.98401L65.829 25.3798L32.4434 28.568Z" fill="#F1AE42"/>
<path d="M15.7739 49.9865C14.5725 49.9865 13.4728 49.7093 12.4747 49.1548C11.4952 48.6003 10.7096 47.7686 10.1182 46.6597C9.54523 45.5322 9.25875 44.109 9.25875 42.3901C9.25875 40.6528 9.53599 39.2296 10.0905 38.1206C10.6634 37.0117 11.4397 36.1892 12.4193 35.6532C13.3989 35.0987 14.5171 34.8214 15.7739 34.8214C17.2341 34.8214 18.5186 35.1357 19.6276 35.7641C20.755 36.3925 21.6422 37.2704 22.2891 38.3979C22.9545 39.5253 23.2872 40.8561 23.2872 42.3901C23.2872 43.9242 22.9545 45.2642 22.2891 46.4101C21.6422 47.5376 20.755 48.4155 19.6276 49.0439C18.5186 49.6723 17.2341 49.9865 15.7739 49.9865ZM7.56758 55.171V34.9878H10.8667V38.481L10.7559 42.4179L11.0331 46.3547V55.171H7.56758ZM15.3858 47.0201C16.2175 47.0201 16.9568 46.8352 17.6037 46.4656C18.2691 46.0959 18.7959 45.5599 19.184 44.8576C19.5721 44.1552 19.7662 43.3328 19.7662 42.3901C19.7662 41.429 19.5721 40.6065 19.184 39.9227C18.7959 39.2203 18.2691 38.6843 17.6037 38.3147C16.9568 37.945 16.2175 37.7602 15.3858 37.7602C14.5541 37.7602 13.8055 37.945 13.1401 38.3147C12.4747 38.6843 11.948 39.2203 11.5599 39.9227C11.1717 40.6065 10.9776 41.429 10.9776 42.3901C10.9776 43.3328 11.1717 44.1552 11.5599 44.8576C11.948 45.5599 12.4747 46.0959 13.1401 46.4656C13.8055 46.8352 14.5541 47.0201 15.3858 47.0201ZM26.5738 49.7925V34.9878H30.0393V49.7925H26.5738ZM28.3204 32.5481C27.6735 32.5481 27.1375 32.3448 26.7124 31.9381C26.3058 31.5315 26.1025 31.0417 26.1025 30.4688C26.1025 29.8773 26.3058 29.3875 26.7124 28.9994C27.1375 28.5928 27.6735 28.3894 28.3204 28.3894C28.9673 28.3894 29.494 28.5835 29.9007 28.9717C30.3258 29.3413 30.5383 29.8126 30.5383 30.3856C30.5383 30.9955 30.335 31.513 29.9284 31.9381C29.5218 32.3448 28.9858 32.5481 28.3204 32.5481ZM40.1603 49.9865C38.5339 49.9865 37.277 49.5707 36.3899 48.739C35.5027 47.8888 35.0591 46.6412 35.0591 44.9962V31.7163H38.5246V44.913C38.5246 45.6154 38.7002 46.1606 39.0514 46.5488C39.421 46.9369 39.9293 47.131 40.5762 47.131C41.3525 47.131 41.9994 46.9277 42.5169 46.521L43.4872 48.9885C43.0806 49.3212 42.5816 49.5707 41.9901 49.737C41.3987 49.9034 40.7887 49.9865 40.1603 49.9865ZM32.6194 37.8711V35.0987H42.4892V37.8711H32.6194ZM52.6431 49.9865C51.0906 49.9865 49.7044 49.6631 48.4845 49.0162C47.2831 48.3508 46.3405 47.4452 45.6566 46.2992C44.9728 45.1533 44.6308 43.8503 44.6308 42.3901C44.6308 40.9115 44.9728 39.6085 45.6566 38.481C46.3405 37.3351 47.2831 36.4387 48.4845 35.7918C49.7044 35.1449 51.0906 34.8214 52.6431 34.8214C54.0848 34.8214 55.3508 35.1172 56.4413 35.7086C57.5503 36.2816 58.3913 37.1318 58.9642 38.2592L56.3027 39.8118C55.8591 39.1094 55.3139 38.5919 54.667 38.2592C54.0386 37.9265 53.3547 37.7602 52.6154 37.7602C51.7652 37.7602 50.9982 37.945 50.3143 38.3147C49.6304 38.6843 49.0944 39.2203 48.7063 39.9227C48.3182 40.6065 48.1241 41.429 48.1241 42.3901C48.1241 43.3512 48.3182 44.183 48.7063 44.8853C49.0944 45.5692 49.6304 46.0959 50.3143 46.4656C50.9982 46.8352 51.7652 47.0201 52.6154 47.0201C53.3547 47.0201 54.0386 46.8537 54.667 46.521C55.3139 46.1883 55.8591 45.6708 56.3027 44.9685L58.9642 46.521C58.3913 47.63 57.5503 48.4894 56.4413 49.0994C55.3508 49.6908 54.0848 49.9865 52.6431 49.9865ZM70.225 34.8214C71.4079 34.8214 72.4614 35.0525 73.3855 35.5145C74.3282 35.9766 75.0675 36.6882 75.6035 37.6493C76.1395 38.5919 76.4075 39.8118 76.4075 41.3089V49.7925H72.942V41.7525C72.942 40.4402 72.6278 39.4606 71.9993 38.8137C71.3894 38.1668 70.53 37.8434 69.421 37.8434C68.6078 37.8434 67.8869 38.0097 67.2585 38.3424C66.6301 38.6751 66.1403 39.1741 65.7891 39.8395C65.4564 40.4864 65.2901 41.3089 65.2901 42.307V49.7925H61.8246V29.2212H65.2901V38.9801L64.5415 37.7602C65.0591 36.8176 65.8076 36.0968 66.7872 35.5977C67.7853 35.0802 68.9312 34.8214 70.225 34.8214ZM80.8037 49.7925V29.2212H84.2692V49.7925H80.8037ZM95.7765 49.9865C94.1315 49.9865 92.6899 49.6631 91.4515 49.0162C90.2316 48.3508 89.2798 47.4452 88.5959 46.2992C87.9305 45.1533 87.5979 43.8503 87.5979 42.3901C87.5979 40.9115 87.9213 39.6085 88.5682 38.481C89.2336 37.3351 90.1392 36.4387 91.2852 35.7918C92.4496 35.1449 93.7711 34.8214 95.2497 34.8214C96.6914 34.8214 97.9759 35.1357 99.1034 35.7641C100.231 36.3925 101.118 37.2797 101.765 38.4256C102.412 39.5715 102.735 40.9208 102.735 42.4733C102.735 42.6212 102.726 42.7875 102.708 42.9723C102.708 43.1572 102.698 43.3328 102.68 43.4991H90.3425V41.198H100.85L99.4915 41.9188C99.51 41.0686 99.3344 40.3201 98.9647 39.6732C98.5951 39.0263 98.0868 38.518 97.4399 38.1483C96.8115 37.7787 96.0814 37.5939 95.2497 37.5939C94.3995 37.5939 93.651 37.7787 93.0041 38.1483C92.3756 38.518 91.8766 39.0355 91.507 39.7009C91.1558 40.3478 90.9802 41.1148 90.9802 42.002V42.5565C90.9802 43.4437 91.1835 44.2292 91.5901 44.913C91.9967 45.5969 92.5697 46.1237 93.309 46.4933C94.0483 46.863 94.8985 47.0478 95.8596 47.0478C96.6914 47.0478 97.4399 46.9184 98.1053 46.6597C98.7707 46.4009 99.3621 45.9943 99.8796 45.4398L101.737 47.5745C101.072 48.3508 100.231 48.9515 99.2143 49.3766C98.2162 49.7832 97.0703 49.9865 95.7765 49.9865ZM114.779 49.7925V46.7983L114.585 46.1606V40.9208C114.585 39.9042 114.28 39.1187 113.67 38.5642C113.06 37.9912 112.136 37.7048 110.898 37.7048C110.066 37.7048 109.244 37.8341 108.43 38.0929C107.636 38.3517 106.961 38.7121 106.407 39.1741L105.048 36.6512C105.843 36.0413 106.785 35.5885 107.876 35.2928C108.985 34.9785 110.131 34.8214 111.314 34.8214C113.458 34.8214 115.112 35.339 116.276 36.374C117.459 37.3905 118.051 38.9708 118.051 41.1148V49.7925H114.779ZM110.122 49.9865C109.013 49.9865 108.042 49.8017 107.211 49.4321C106.379 49.0439 105.732 48.5172 105.27 47.8518C104.826 47.1679 104.604 46.4009 104.604 45.5507C104.604 44.719 104.799 43.9704 105.187 43.305C105.593 42.6397 106.249 42.1129 107.155 41.7248C108.061 41.3366 109.262 41.1425 110.759 41.1425H115.056V43.4437H111.009C109.826 43.4437 109.031 43.6377 108.624 44.0259C108.218 44.3955 108.015 44.8576 108.015 45.4121C108.015 46.0405 108.264 46.5395 108.763 46.9092C109.262 47.2788 109.955 47.4637 110.842 47.4637C111.693 47.4637 112.45 47.2696 113.116 46.8814C113.8 46.4933 114.289 45.9203 114.585 45.1625L115.167 47.2419C114.835 48.1105 114.234 48.7852 113.365 49.2657C112.515 49.7463 111.434 49.9865 110.122 49.9865ZM125.326 46.4933L125.409 42.1406L133.144 34.9878H137.303L130.732 41.5861L128.902 43.111L125.326 46.4933ZM122.498 49.7925V29.2212H125.964V49.7925H122.498ZM133.671 49.7925L128.265 43.111L130.455 40.3385L137.885 49.7925H133.671ZM144.238 49.9865C142.999 49.9865 141.807 49.8294 140.661 49.5152C139.534 49.1825 138.638 48.7852 137.972 48.3231L139.303 45.6893C139.968 46.1144 140.763 46.4656 141.687 46.7428C142.611 47.0201 143.535 47.1587 144.46 47.1587C145.55 47.1587 146.336 47.0108 146.816 46.7151C147.315 46.4194 147.565 46.022 147.565 45.523C147.565 45.1163 147.398 44.8114 147.066 44.6081C146.733 44.3863 146.299 44.2199 145.763 44.109C145.227 43.9981 144.626 43.8965 143.961 43.8041C143.314 43.7117 142.658 43.5915 141.992 43.4437C141.345 43.2773 140.754 43.0463 140.218 42.7505C139.682 42.4363 139.247 42.0205 138.915 41.503C138.582 40.9854 138.416 40.3016 138.416 39.4514C138.416 38.5088 138.684 37.6955 139.22 37.0117C139.756 36.3093 140.504 35.7733 141.465 35.4037C142.445 35.0155 143.6 34.8214 144.931 34.8214C145.929 34.8214 146.936 34.9323 147.953 35.1541C148.969 35.3759 149.81 35.6901 150.476 36.0968L149.145 38.7305C148.443 38.3054 147.731 38.019 147.01 37.8711C146.308 37.7048 145.606 37.6216 144.903 37.6216C143.85 37.6216 143.064 37.7787 142.547 38.0929C142.048 38.4071 141.798 38.8045 141.798 39.285C141.798 39.7286 141.964 40.0613 142.297 40.2831C142.63 40.5049 143.064 40.6805 143.6 40.8099C144.136 40.9392 144.728 41.0501 145.375 41.1425C146.04 41.2165 146.696 41.3366 147.343 41.503C147.99 41.6693 148.581 41.9003 149.117 42.1961C149.672 42.4733 150.115 42.8707 150.448 43.3882C150.781 43.9057 150.947 44.5803 150.947 45.4121C150.947 46.3362 150.67 47.1402 150.115 47.8241C149.579 48.5079 148.812 49.0439 147.814 49.4321C146.816 49.8017 145.624 49.9865 144.238 49.9865Z" fill="black"/>
<path d="M154.278 34.7658C153.893 34.7658 153.536 34.6965 153.208 34.5578C152.879 34.4192 152.592 34.2267 152.345 33.9803C152.099 33.7287 151.906 33.4386 151.768 33.11C151.634 32.7814 151.567 32.4272 151.567 32.0473C151.567 31.6673 151.637 31.3131 151.775 30.9845C151.914 30.6559 152.106 30.3684 152.353 30.122C152.599 29.8704 152.887 29.6753 153.215 29.5367C153.549 29.3981 153.909 29.3288 154.294 29.3288C154.679 29.3288 155.035 29.3981 155.364 29.5367C155.698 29.6702 155.985 29.8601 156.227 30.1066C156.473 30.353 156.663 30.6405 156.796 30.9691C156.935 31.2926 157.004 31.6468 157.004 32.0319C157.004 32.4169 156.935 32.7763 156.796 33.11C156.658 33.4386 156.463 33.7287 156.211 33.9803C155.965 34.2267 155.677 34.4192 155.349 34.5578C155.02 34.6965 154.663 34.7658 154.278 34.7658ZM155.095 33.5644L154.34 32.4015H155.002L155.757 33.5644H155.095ZM154.27 34.3422C154.599 34.3422 154.902 34.2832 155.179 34.1651C155.456 34.047 155.698 33.8853 155.903 33.6799C156.114 33.4694 156.275 33.223 156.388 32.9406C156.501 32.6582 156.558 32.3553 156.558 32.0319C156.558 31.7084 156.501 31.4081 156.388 31.1308C156.275 30.8536 156.116 30.6123 155.911 30.4069C155.711 30.2016 155.472 30.0424 155.195 29.9295C154.923 29.8114 154.622 29.7523 154.294 29.7523C153.965 29.7523 153.66 29.8114 153.377 29.9295C153.1 30.0424 152.859 30.2041 152.653 30.4146C152.453 30.6251 152.294 30.869 152.176 31.1462C152.063 31.4235 152.006 31.7238 152.006 32.0473C152.006 32.3707 152.063 32.6711 152.176 32.9483C152.289 33.2255 152.448 33.4694 152.653 33.6799C152.859 33.8904 153.1 34.0547 153.377 34.1728C153.654 34.2857 153.952 34.3422 154.27 34.3422ZM153.146 33.5644V30.5301H154.409C154.81 30.5301 155.123 30.6251 155.349 30.8151C155.575 31.0051 155.688 31.2618 155.688 31.5852C155.688 31.9189 155.575 32.1782 155.349 32.363C155.123 32.5478 154.81 32.6403 154.409 32.6403H153.808V33.5644H153.146ZM153.801 32.1243H154.371C154.586 32.1243 154.753 32.0781 154.871 31.9857C154.989 31.8881 155.048 31.7546 155.048 31.5852C155.048 31.4158 154.989 31.2849 154.871 31.1924C154.753 31.1 154.586 31.0538 154.371 31.0538H153.801V32.1243Z" fill="black"/>
</svg>
